<svg width="14" height="10" viewBox="0 0 14 10" fill="none" xmlns="http://www.w3.org/2000/svg">
<path d="M4.95832 7.625L12.0208 0.5625C12.1875 0.395833 12.3855 0.3125 12.615 0.3125C12.8444 0.3125 13.0422 0.395833 13.2083 0.5625C13.375 0.729167 13.4583 0.927222 13.4583 1.15667C13.4583 1.38611 13.375 1.58389 13.2083 1.75L5.54165 9.41667C5.37499 9.58333 5.18054 9.66667 4.95832 9.66667C4.7361 9.66667 4.54165 9.58333 4.37499 9.41667L0.791654 5.83333C0.624988 5.66667 0.544987 5.46889 0.551654 5.24C0.558321 5.01111 0.645265 4.81306 0.812487 4.64583C0.979154 4.47917 1.17721 4.39583 1.40665 4.39583C1.6361 4.39583 1.83388 4.47917 1.99999 4.64583L4.95832 7.625Z" fill="white"/>
</svg>
