<svg width="8" height="10" viewBox="0 0 8 10" fill="none" xmlns="http://www.w3.org/2000/svg">
<path d="M1.358 10V0.00399935H3.99C5.21267 0.00399935 6.118 0.251333 6.706 0.746C7.30333 1.24067 7.602 1.95933 7.602 2.902C7.602 3.53667 7.45733 4.08267 7.168 4.54C6.87867 4.988 6.44933 5.33333 5.88 5.576C5.32 5.81867 4.62467 5.94 3.794 5.94H2.618V10H1.358ZM0.14 8.096V7.186H4.928V8.096H0.14ZM0.14 5.94V4.876H3.346V5.94H0.14ZM3.612 4.876C4.18133 4.876 4.662 4.81533 5.054 4.694C5.45533 4.57267 5.76333 4.372 5.978 4.092C6.19267 3.812 6.3 3.42933 6.3 2.944C6.3 2.30933 6.104 1.838 5.712 1.53C5.32 1.222 4.70867 1.068 3.878 1.068H2.618V4.876H3.612Z" fill="#303233"/>
</svg>
