<svg width="46" height="46" viewBox="0 0 46 46" fill="none" xmlns="http://www.w3.org/2000/svg">
<path d="M23 46C35.7027 46 46 35.7027 46 23C46 10.2973 35.7027 0 23 0C10.2973 0 0 10.2973 0 23C0 35.7027 10.2973 46 23 46Z" fill="#D6001D"/>
<path fill-rule="evenodd" clip-rule="evenodd" d="M12.9409 19.7716V11.96H9.19995V32.2H12.937L12.9409 25.0677C12.937 23.8707 13.0513 22.9665 13.28 22.3541C13.5048 21.7427 13.8594 21.2853 14.3535 20.9791C14.837 20.6749 15.3931 20.5218 16.0132 20.5218C16.5548 20.5218 17.0034 20.6404 17.3639 20.8806C17.7166 21.1064 17.9813 21.4438 18.1148 21.8374C18.2572 22.2393 18.325 23.1847 18.325 24.6773V32.2H22.0669V23.8478C22.0669 22.5694 22.003 21.6269 21.8751 21.0213C21.7462 20.4127 21.5079 19.8606 21.1552 19.3564C20.8044 18.8569 20.2851 18.4454 19.5904 18.1249C18.8976 17.8024 18.1254 17.6398 17.2631 17.6398C15.5889 17.6398 14.1452 18.3536 12.9409 19.7716ZM27.6749 19.7716V11.96H23.9378V32.2H27.6749V25.0677C27.6749 23.8707 27.7892 22.9665 28.014 22.3541C28.2417 21.7427 28.5982 21.2853 29.0856 20.9792C29.57 20.6749 30.1262 20.5218 30.7453 20.5218C31.2869 20.5218 31.7394 20.6404 32.0959 20.8806C32.4498 21.1057 32.7153 21.4432 32.8488 21.8374C32.9912 22.2393 33.0619 23.1847 33.0619 24.6773V32.2H36.7999V23.8478C36.7999 22.5694 36.736 21.6269 36.6071 21.0213C36.4842 20.4238 36.2392 19.8573 35.8872 19.3564C35.5384 18.8569 35.0191 18.4454 34.3273 18.1249C33.6336 17.8025 32.8556 17.6398 31.9962 17.6398C30.3229 17.6398 28.8802 18.3536 27.6749 19.7716Z" fill="white"/>
</svg>
