<svg width="121" height="120" viewBox="0 0 121 120" fill="none" xmlns="http://www.w3.org/2000/svg">
<path d="M64.5 37C59.1599 37 53.9397 38.5835 49.4996 41.5503C45.0595 44.5171 41.5988 48.7339 39.5553 53.6675C37.5117 58.6011 36.977 64.0299 38.0188 69.2674C39.0606 74.5049 41.6321 79.3158 45.4081 83.0919C49.1841 86.8679 53.9951 89.4394 59.2326 90.4812C64.4701 91.523 69.8989 90.9883 74.8325 88.9447C79.7661 86.9012 83.9829 83.4405 86.9497 79.0004C89.9165 74.5603 91.5 69.3401 91.5 64" stroke="#0070FF" stroke-width="2" stroke-linecap="round" stroke-linejoin="round"/>
<path d="M62.3946 28.2105C55.5243 28.2105 49.2124 31.0013 43.5 34.8182C37.7876 38.6351 33.0241 45.8106 30.3949 52.1579C27.7658 58.5052 28.1071 65.788 29.4474 72.5263C30.7877 79.2646 35.4313 85.9841 40.2893 90.8421C45.1473 95.7001 50.1829 98.186 56.9212 99.5263C63.6595 100.867 71.4459 99.7744 77.7932 97.1453C84.1406 94.5161 90.0516 90.0809 93.8685 84.3684C97.6854 78.656 100.289 72.9756 100.289 66.1053" stroke="#0070FF" stroke-opacity="0.2" stroke-width="6" stroke-linecap="round" stroke-linejoin="round"/>
<path d="M64.5 19C55.5999 19 46.8996 21.6392 39.4994 26.5839C32.0991 31.5285 26.3314 38.5566 22.9254 46.7792C19.5195 55.0019 18.6283 64.0499 20.3647 72.7791C22.101 81.5082 26.3868 89.5264 32.6802 95.8198C38.9736 102.113 46.9918 106.399 55.7209 108.135C64.4501 109.872 73.4981 108.981 81.7208 105.575C89.9434 102.169 96.9715 96.4009 101.916 89.0007C106.861 81.6004 109.5 72.9001 109.5 64M81.1974 47.3074L67.5 61" stroke="#0070FF" stroke-width="2" stroke-linecap="round" stroke-linejoin="round"/>
<path d="M106.848 34.84L91.5002 37L93.6602 21.6526C93.676 21.4743 93.6383 21.2954 93.552 21.1386C93.4656 20.9819 93.3345 20.8544 93.1754 20.7726C93.0162 20.6907 92.8363 20.6582 92.6585 20.6791C92.4808 20.7 92.3133 20.7734 92.1775 20.89L82.0028 31.0126C80.9577 32.0652 80.189 33.3598 79.7651 34.7813C79.3411 36.2027 79.2751 37.7069 79.5728 39.16L81.1928 47.3073L89.3402 48.9226C90.7933 49.2203 92.2974 49.1543 93.7189 48.7303C95.1403 48.3064 96.4349 47.5377 97.4875 46.4926L107.605 36.3226C107.722 36.1865 107.796 36.0185 107.817 35.8403C107.838 35.662 107.805 35.4817 107.722 35.3223C107.64 35.1629 107.511 35.0318 107.354 34.9459C107.196 34.8599 107.017 34.8231 106.838 34.84" fill="#C4DAF7"/>
<path d="M106.848 34.84L91.5002 37L93.6602 21.6526C93.676 21.4743 93.6383 21.2954 93.552 21.1386C93.4656 20.9819 93.3345 20.8544 93.1754 20.7726C93.0162 20.6907 92.8363 20.6582 92.6585 20.6791C92.4808 20.7 92.3133 20.7734 92.1775 20.89L82.0028 31.0126C80.9577 32.0652 80.189 33.3598 79.7651 34.7813C79.3411 36.2027 79.2751 37.7069 79.5728 39.16L81.1928 47.3073L89.3402 48.9226C90.7933 49.2203 92.2974 49.1543 93.7189 48.7303C95.1403 48.3064 96.4349 47.5377 97.4875 46.4926L107.605 36.3226C107.722 36.1865 107.796 36.0185 107.817 35.8403C107.838 35.662 107.805 35.4817 107.722 35.3223C107.64 35.1629 107.511 35.0318 107.354 34.9459C107.196 34.8599 107.017 34.8231 106.838 34.84" stroke="#0070FF" stroke-width="2" stroke-linecap="round" stroke-linejoin="round"/>
<circle cx="64.5" cy="64" r="5" fill="#0070FF" stroke="#0070FF" stroke-width="2"/>
</svg>
