<svg width="121" height="120" viewBox="0 0 121 120" fill="none" xmlns="http://www.w3.org/2000/svg">
<path fill-rule="evenodd" clip-rule="evenodd" d="M105.4 60.0231C105.4 84.9081 85.2266 105.081 60.3415 105.081C35.4565 105.081 15.2832 84.9081 15.2832 60.0231C15.2832 35.138 35.4565 14.9647 60.3415 14.9647C85.2266 14.9647 105.4 35.138 105.4 60.0231ZM96.9615 60.0617C96.9615 80.1934 80.6415 96.5134 60.5098 96.5134C40.3781 96.5134 24.0582 80.1934 24.0582 60.0617C24.0582 39.93 40.3781 23.61 60.5098 23.61C80.6415 23.61 96.9615 39.93 96.9615 60.0617Z" fill="#0070FF" fill-opacity="0.2"/>
<path d="M92.3501 42.3C96.6477 50.0051 98.0039 59.0077 96.1669 67.6369C94.33 76.2662 89.4245 83.9358 82.3612 89.2224C75.2978 94.5089 66.5564 97.0532 57.7593 96.383C48.9622 95.7128 40.707 91.8736 34.526 85.5781C28.345 79.2826 24.6581 70.9583 24.1495 62.1504C23.6409 53.3425 26.3453 44.6492 31.7606 37.6841C37.1759 30.719 44.9343 25.9552 53.5958 24.2769C62.2573 22.5987 71.2335 24.1199 78.8584 28.5583" stroke="#0070FF" stroke-width="2" stroke-linecap="round" stroke-linejoin="round"/>
<path d="M105.4 59.995C105.399 70.7155 101.577 81.0845 94.6199 89.2412C87.6632 97.3979 78.0271 102.808 67.4411 104.501C56.8552 106.194 46.0124 104.058 36.8589 98.4779C27.7054 92.8974 20.8405 84.2374 17.4961 74.0519C14.1518 63.8664 14.547 52.8225 18.6109 42.9022C22.6748 32.9819 30.1413 24.8347 39.6703 19.9228C49.1993 15.011 60.167 13.6561 70.6048 16.1014C81.0427 18.5466 90.2674 24.6319 96.6233 33.265" stroke="#0070FF" stroke-width="2" stroke-linecap="round" stroke-linejoin="round"/>
<path d="M60.3184 66.8183C63.7582 66.8183 66.5468 64.0298 66.5468 60.59C66.5468 57.1502 63.7582 54.3617 60.3184 54.3617C56.8786 54.3617 54.0901 57.1502 54.0901 60.59C54.0901 64.0298 56.8786 66.8183 60.3184 66.8183Z" fill="#0070FF"/>
<path d="M79.49 35.9633L97.8866 34.03L95.9533 15.6333M83.7916 60.59H60.3183V30.8667M60.3183 89.8517V83.4433M35.7383 60.59H30.6433" stroke="#0070FF" stroke-width="2" stroke-linecap="round" stroke-linejoin="round"/>
</svg>
