<svg width="121" height="120" viewBox="0 0 121 120" fill="none" xmlns="http://www.w3.org/2000/svg">
<path d="M56.515 37.7742C58.2882 34.5868 59.1748 33.0001 60.5 33.0001C61.8252 33.0001 62.7118 34.5868 64.485 37.7742L64.9423 38.5955C65.4462 39.5009 65.6982 39.9489 66.0901 40.2476C66.4868 40.5463 66.9767 40.6583 67.9566 40.8776L68.8432 41.083C72.2869 41.8623 74.0087 42.2497 74.4194 43.5657C74.83 44.8864 73.6541 46.2584 71.307 49.0025L70.7004 49.7119C70.0331 50.4912 69.6971 50.8786 69.5478 51.3639C69.3985 51.8493 69.4498 52.3673 69.5478 53.408L69.6411 54.3553C69.9958 58.0188 70.1731 59.8528 69.1045 60.6648C68.0313 61.4769 66.4168 60.7348 63.1924 59.2508L62.3618 58.8681C61.4426 58.4481 60.9853 58.2381 60.5 58.2381C60.0147 58.2381 59.5574 58.4481 58.6382 58.8681L57.8076 59.2508C54.5832 60.7395 52.9687 61.4769 51.8955 60.6648C50.8222 59.8528 51.0042 58.0188 51.3589 54.3553L51.4522 53.408C51.5502 52.3673 51.6015 51.8493 51.4522 51.3639C51.3029 50.8832 50.9669 50.4912 50.2996 49.7119L49.693 49.0025C47.3459 46.2584 46.17 44.8864 46.5806 43.5657C46.9913 42.2497 48.7131 41.8623 52.1568 41.083L53.0434 40.8776C54.0233 40.6583 54.5132 40.5509 54.9099 40.2476C55.3018 39.9489 55.5538 39.5009 56.0577 38.5955L56.515 37.7742Z" fill="#C3DCFB" stroke="#0070FF" stroke-width="2"/>
<path fill-rule="evenodd" clip-rule="evenodd" d="M101.561 63.6748C103.795 58.2826 104.945 52.5032 104.945 46.6667C104.945 34.8793 100.262 23.5747 91.9271 15.2397C83.5921 6.90475 72.2875 2.22223 60.5001 2.22223C48.7127 2.22223 37.4081 6.90475 29.0731 15.2397C20.7382 23.5747 16.0557 34.8793 16.0557 46.6667C16.0557 52.5032 17.2053 58.2826 19.4388 63.6748C21.6723 69.0671 24.9461 73.9666 29.0731 78.0936C33.2002 82.2207 38.0997 85.4944 43.492 87.728C48.8842 89.9615 54.6636 91.1111 60.5001 91.1111C66.3366 91.1111 72.116 89.9615 77.5083 87.728C82.9005 85.4944 87.8 82.2207 91.9271 78.0936C96.0541 73.9666 99.3279 69.0671 101.561 63.6748ZM94.376 60.6984C96.2186 56.2498 97.167 51.4818 97.167 46.6667C97.167 36.9421 93.304 27.6158 86.4276 20.7394C79.5513 13.8631 70.225 10 60.5004 10C50.7758 10 41.4495 13.8631 34.5731 20.7394C27.6968 27.6158 23.8337 36.9421 23.8337 46.6667C23.8337 51.4818 24.7821 56.2498 26.6248 60.6984C28.4675 65.147 31.1683 69.1891 34.5731 72.5939C37.9779 75.9987 42.02 78.6996 46.4687 80.5423C50.9173 82.3849 55.6852 83.3333 60.5004 83.3333C65.3155 83.3333 70.0835 82.3849 74.5321 80.5423C78.9807 78.6996 83.0228 75.9987 86.4276 72.5939C89.8324 69.1891 92.5333 65.147 94.376 60.6984Z" fill="#C3DCFB"/>
<path d="M101.561 63.6748L100.638 63.2921L101.561 63.6748ZM91.9271 15.2397L92.6342 14.5326L91.9271 15.2397ZM19.4388 63.6748L20.3627 63.2921L19.4388 63.6748ZM29.0731 78.0936L28.366 78.8007H28.366L29.0731 78.0936ZM91.9271 78.0936L92.6342 78.8007L91.9271 78.0936ZM86.4276 20.7394L87.1347 20.0323L86.4276 20.7394ZM34.5731 20.7394L33.866 20.0323L34.5731 20.7394ZM34.5731 72.5939L35.2802 71.8868L34.5731 72.5939ZM46.4687 80.5423L46.8513 79.6184L46.4687 80.5423ZM74.5321 80.5423L74.1494 79.6184L74.5321 80.5423ZM103.945 46.6667C103.945 52.3719 102.821 58.0212 100.638 63.2921L102.485 64.0575C104.769 58.5439 105.945 52.6345 105.945 46.6667H103.945ZM91.22 15.9468C99.3674 24.0942 103.945 35.1445 103.945 46.6667H105.945C105.945 34.6141 101.157 23.0551 92.6342 14.5326L91.22 15.9468ZM60.5001 3.22223C72.0223 3.22223 83.0725 7.7994 91.22 15.9468L92.6342 14.5326C84.1117 6.01011 72.5527 1.22223 60.5001 1.22223V3.22223ZM29.7802 15.9468C37.9277 7.7994 48.9779 3.22223 60.5001 3.22223V1.22223C48.4475 1.22223 36.8885 6.01011 28.366 14.5326L29.7802 15.9468ZM17.0557 46.6667C17.0557 35.1445 21.6328 24.0942 29.7802 15.9468L28.366 14.5326C19.8435 23.0551 15.0557 34.6141 15.0557 46.6667H17.0557ZM20.3627 63.2921C18.1794 58.0212 17.0557 52.3719 17.0557 46.6667H15.0557C15.0557 52.6345 16.2311 58.5439 18.5149 64.0575L20.3627 63.2921ZM29.7802 77.3865C25.7461 73.3523 22.546 68.5631 20.3627 63.2921L18.5149 64.0575C20.7987 69.5711 24.1461 74.5808 28.366 78.8007L29.7802 77.3865ZM43.8746 86.8041C38.6037 84.6208 33.8144 81.4207 29.7802 77.3865L28.366 78.8007C32.5859 83.0206 37.5957 86.3681 43.1093 88.6519L43.8746 86.8041ZM60.5001 90.1111C54.7949 90.1111 49.1456 88.9874 43.8746 86.8041L43.1093 88.6519C48.6228 90.9357 54.5323 92.1111 60.5001 92.1111V90.1111ZM77.1256 86.8041C71.8547 88.9874 66.2053 90.1111 60.5001 90.1111V92.1111C66.468 92.1111 72.3774 90.9357 77.8909 88.6519L77.1256 86.8041ZM91.22 77.3865C87.1858 81.4207 82.3965 84.6208 77.1256 86.8041L77.8909 88.6519C83.4045 86.3681 88.4143 83.0206 92.6342 78.8007L91.22 77.3865ZM100.638 63.2921C98.4543 68.5631 95.2542 73.3523 91.22 77.3865L92.6342 78.8007C96.8541 74.5808 100.202 69.5711 102.485 64.0575L100.638 63.2921ZM96.167 46.6667C96.167 51.3505 95.2445 55.9884 93.4521 60.3157L95.2999 61.0811C97.1928 56.5112 98.167 51.6131 98.167 46.6667H96.167ZM85.7205 21.4465C92.4093 28.1353 96.167 37.2073 96.167 46.6667H98.167C98.167 36.6769 94.1986 27.0962 87.1347 20.0323L85.7205 21.4465ZM60.5004 11C69.9598 11 79.0317 14.7577 85.7205 21.4465L87.1347 20.0323C80.0709 12.9684 70.4902 9.00001 60.5004 9.00001V11ZM35.2802 21.4465C41.969 14.7577 51.041 11 60.5004 11V9.00001C50.5106 9.00001 40.9299 12.9684 33.866 20.0323L35.2802 21.4465ZM24.8337 46.6667C24.8337 37.2073 28.5914 28.1353 35.2802 21.4465L33.866 20.0323C26.8022 27.0962 22.8337 36.6769 22.8337 46.6667H24.8337ZM27.5487 60.3157C25.7563 55.9884 24.8337 51.3505 24.8337 46.6667H22.8337C22.8337 51.6131 23.808 56.5112 25.7009 61.0811L27.5487 60.3157ZM35.2802 71.8868C31.9683 68.5749 29.3411 64.643 27.5487 60.3157L25.7009 61.0811C27.5938 65.651 30.3684 69.8034 33.866 73.301L35.2802 71.8868ZM46.8513 79.6184C42.5241 77.826 38.5922 75.1988 35.2802 71.8868L33.866 73.301C37.3637 76.7987 41.516 79.5732 46.086 81.4661L46.8513 79.6184ZM60.5004 82.3333C55.8166 82.3333 51.1786 81.4108 46.8513 79.6184L46.086 81.4661C50.6559 83.3591 55.5539 84.3333 60.5004 84.3333V82.3333ZM74.1494 79.6184C69.8221 81.4108 65.1842 82.3333 60.5004 82.3333V84.3333C65.4468 84.3333 70.3449 83.3591 74.9148 81.4661L74.1494 79.6184ZM85.7205 71.8868C82.4086 75.1988 78.4767 77.826 74.1494 79.6184L74.9148 81.4661C79.4847 79.5732 83.6371 76.7987 87.1347 73.301L85.7205 71.8868ZM93.4521 60.3157C91.6597 64.643 89.0325 68.5749 85.7205 71.8868L87.1347 73.301C90.6324 69.8034 93.4069 65.651 95.2999 61.0811L93.4521 60.3157Z" fill="#0070FF"/>
<path d="M30.9541 79.9999L23.5788 87.3753C21.2989 89.7219 20.159 90.8973 19.7621 91.8922C18.8628 94.1548 19.6354 96.6693 21.5902 97.8614C22.4516 98.382 24.0011 98.5457 27.1001 98.8731C28.8522 99.0578 29.7262 99.146 30.4566 99.4272C31.2733 99.742 32.0115 100.229 32.6201 100.856C33.2288 101.482 33.6935 102.232 33.9821 103.054C34.2523 103.81 34.3409 104.708 34.5225 106.513C34.8349 109.703 34.9954 111.299 35.502 112.18C36.6589 114.195 39.1035 114.984 41.2989 114.061C42.27 113.658 43.41 112.487 45.6899 110.136L61.6114 93.7434L77.5329 110.136C79.8128 112.487 80.9527 113.658 81.9238 114.061C84.1193 114.984 86.5639 114.195 87.7207 112.18C88.2274 111.299 88.3836 109.703 88.7003 106.513C88.8818 104.708 88.9705 103.81 89.2407 103.054C89.8487 101.367 91.1237 100.053 92.7661 99.4272C93.4965 99.146 94.3705 99.0578 96.1227 98.8731C99.2217 98.5457 100.771 98.382 101.633 97.8614C103.587 96.6693 104.36 94.1548 103.461 91.8922C103.064 90.8973 101.924 89.7219 99.6439 87.3753L91.1575 78.8889" stroke="#0070FF" stroke-width="2"/>
</svg>
