<svg width="121" height="120" viewBox="0 0 121 120" fill="none" xmlns="http://www.w3.org/2000/svg">
<path fill-rule="evenodd" clip-rule="evenodd" d="M74.4039 18.7111L61.0557 8.88914L47.7076 18.7111L31.1831 18.6803L26.1087 34.541L12.7224 44.3116L17.8579 60.1518L12.7224 75.9919L26.1087 85.7626L31.1831 101.623L47.7076 101.592L61.0557 111.414L74.4039 101.592L90.9283 101.623L96.0028 85.7626L109.389 75.9919L104.254 60.1518L109.389 44.3116L96.0028 34.541L90.9283 18.6803L74.4039 18.7111ZM72.2559 25.8678L61.0557 17.778L49.8556 25.8678L35.9902 25.8425L31.7323 38.906L20.5002 46.9536L24.8093 60.0003L20.5002 73.0469L31.7323 81.0945L35.9902 94.158L49.8556 94.1327L61.0557 102.222L72.2559 94.1327L86.1213 94.158L90.3792 81.0945L101.611 73.0469L97.3022 60.0003L101.611 46.9536L90.3792 38.906L86.1213 25.8425L72.2559 25.8678Z" fill="#0070FF" fill-opacity="0.2"/>
<path d="M61.0557 8.88914L61.6484 8.0837C61.2959 7.82429 60.8156 7.82429 60.4631 8.0837L61.0557 8.88914ZM74.4039 18.7111L73.8112 19.5165C73.9835 19.6433 74.1919 19.7115 74.4057 19.7111L74.4039 18.7111ZM47.7076 18.7111L47.7057 19.7111C47.9196 19.7115 48.128 19.6433 48.3003 19.5165L47.7076 18.7111ZM31.1831 18.6803L31.185 17.6803C30.7494 17.6795 30.3634 17.9607 30.2307 18.3756L31.1831 18.6803ZM26.1087 34.541L26.6982 35.3487C26.8694 35.2237 26.9965 35.0476 27.0611 34.8457L26.1087 34.541ZM12.7224 44.3116L12.1329 43.5039C11.7838 43.7587 11.6379 44.2089 11.7712 44.62L12.7224 44.3116ZM17.8579 60.1518L18.8091 60.4602C18.8741 60.2597 18.8741 60.0438 18.8091 59.8434L17.8579 60.1518ZM12.7224 75.9919L11.7712 75.6835C11.6379 76.0946 11.7838 76.5449 12.1329 76.7996L12.7224 75.9919ZM26.1087 85.7626L27.0611 85.4578C26.9965 85.256 26.8694 85.0798 26.6982 84.9548L26.1087 85.7626ZM31.1831 101.623L30.2307 101.928C30.3634 102.343 30.7494 102.624 31.185 102.623L31.1831 101.623ZM47.7076 101.592L48.3003 100.787C48.128 100.66 47.9196 100.592 47.7057 100.592L47.7076 101.592ZM61.0557 111.414L60.4631 112.22C60.8156 112.479 61.2959 112.479 61.6484 112.22L61.0557 111.414ZM74.4039 101.592L74.4057 100.592C74.1919 100.592 73.9835 100.66 73.8112 100.787L74.4039 101.592ZM90.9283 101.623L90.9265 102.623C91.3621 102.624 91.748 102.343 91.8808 101.928L90.9283 101.623ZM96.0028 85.7626L95.4132 84.9548C95.242 85.0798 95.115 85.256 95.0504 85.4578L96.0028 85.7626ZM109.389 75.9919L109.979 76.7996C110.328 76.5449 110.474 76.0946 110.34 75.6835L109.389 75.9919ZM104.254 60.1518L103.302 59.8434C103.237 60.0438 103.237 60.2597 103.302 60.4602L104.254 60.1518ZM109.389 44.3116L110.34 44.62C110.474 44.2089 110.328 43.7587 109.979 43.5039L109.389 44.3116ZM96.0028 34.541L95.0504 34.8457C95.115 35.0476 95.242 35.2237 95.4132 35.3487L96.0028 34.541ZM90.9283 18.6803L91.8808 18.3756C91.748 17.9607 91.3621 17.6795 90.9265 17.6803L90.9283 18.6803ZM61.0557 17.778L61.6413 16.9674C61.2917 16.7149 60.8197 16.7149 60.4702 16.9674L61.0557 17.778ZM72.2559 25.8678L71.6704 26.6785C71.8413 26.8019 72.0469 26.8682 72.2577 26.8678L72.2559 25.8678ZM49.8556 25.8678L49.8538 26.8678C50.0646 26.8682 50.2702 26.8019 50.4411 26.6785L49.8556 25.8678ZM35.9902 25.8425L35.9921 24.8425C35.5585 24.8417 35.1738 25.1204 35.0395 25.5326L35.9902 25.8425ZM31.7323 38.906L32.3148 39.7189C32.488 39.5948 32.6171 39.4186 32.6831 39.2159L31.7323 38.906ZM20.5002 46.9536L19.9178 46.1407C19.5622 46.3955 19.4134 46.8518 19.5506 47.2672L20.5002 46.9536ZM24.8093 60.0003L25.7588 60.3139C25.8261 60.1102 25.8261 59.8903 25.7588 59.6866L24.8093 60.0003ZM20.5002 73.0469L19.5506 72.7333C19.4134 73.1487 19.5622 73.605 19.9178 73.8598L20.5002 73.0469ZM31.7323 81.0945L32.6831 80.7846C32.6171 80.582 32.488 80.4057 32.3148 80.2816L31.7323 81.0945ZM35.9902 94.158L35.0395 94.4679C35.1738 94.8801 35.5585 95.1588 35.9921 95.158L35.9902 94.158ZM49.8556 94.1327L50.4411 93.322C50.2702 93.1986 50.0646 93.1323 49.8538 93.1327L49.8556 94.1327ZM61.0557 102.222L60.4702 103.033C60.8197 103.286 61.2917 103.286 61.6413 103.033L61.0557 102.222ZM72.2559 94.1327L72.2577 93.1327C72.0469 93.1323 71.8413 93.1986 71.6704 93.322L72.2559 94.1327ZM86.1213 94.158L86.1194 95.158C86.553 95.1588 86.9377 94.8801 87.072 94.4679L86.1213 94.158ZM90.3792 81.0945L89.7967 80.2816C89.6235 80.4057 89.4944 80.582 89.4284 80.7846L90.3792 81.0945ZM101.611 73.0469L102.194 73.8598C102.549 73.605 102.698 73.1487 102.561 72.7333L101.611 73.0469ZM97.3022 60.0003L96.3527 59.6866C96.2854 59.8903 96.2854 60.1102 96.3527 60.3139L97.3022 60.0003ZM101.611 46.9536L102.561 47.2672C102.698 46.8518 102.549 46.3955 102.194 46.1407L101.611 46.9536ZM90.3792 38.906L89.4284 39.2159C89.4944 39.4186 89.6235 39.5948 89.7967 39.7189L90.3792 38.906ZM86.1213 25.8425L87.072 25.5326C86.9377 25.1204 86.553 24.8417 86.1194 24.8425L86.1213 25.8425ZM60.4631 9.69459L73.8112 19.5165L74.9966 17.9056L61.6484 8.0837L60.4631 9.69459ZM48.3003 19.5165L61.6484 9.69459L60.4631 8.0837L47.1149 17.9056L48.3003 19.5165ZM31.1813 19.6803L47.7057 19.7111L47.7095 17.7111L31.185 17.6803L31.1813 19.6803ZM27.0611 34.8457L32.1356 18.985L30.2307 18.3756L25.1562 34.2362L27.0611 34.8457ZM13.312 45.1193L26.6982 35.3487L25.5191 33.7332L12.1329 43.5039L13.312 45.1193ZM18.8091 59.8434L13.6737 44.0032L11.7712 44.62L16.9066 60.4602L18.8091 59.8434ZM13.6737 76.3003L18.8091 60.4602L16.9066 59.8434L11.7712 75.6835L13.6737 76.3003ZM26.6982 84.9548L13.312 75.1842L12.1329 76.7996L25.5191 86.5703L26.6982 84.9548ZM32.1356 101.319L27.0611 85.4578L25.1562 86.0673L30.2307 101.928L32.1356 101.319ZM47.7057 100.592L31.1813 100.623L31.185 102.623L47.7095 102.592L47.7057 100.592ZM61.6484 110.609L48.3003 100.787L47.1149 102.398L60.4631 112.22L61.6484 110.609ZM73.8112 100.787L60.4631 110.609L61.6484 112.22L74.9966 102.398L73.8112 100.787ZM90.9302 100.623L74.4057 100.592L74.402 102.592L90.9265 102.623L90.9302 100.623ZM95.0504 85.4578L89.9759 101.319L91.8808 101.928L96.9552 86.0673L95.0504 85.4578ZM108.8 75.1842L95.4132 84.9548L96.5924 86.5703L109.979 76.7996L108.8 75.1842ZM103.302 60.4602L108.438 76.3003L110.34 75.6835L105.205 59.8434L103.302 60.4602ZM108.438 44.0032L103.302 59.8434L105.205 60.4602L110.34 44.62L108.438 44.0032ZM95.4132 35.3487L108.8 45.1193L109.979 43.5039L96.5924 33.7332L95.4132 35.3487ZM89.9759 18.985L95.0504 34.8457L96.9552 34.2362L91.8808 18.3756L89.9759 18.985ZM74.4057 19.7111L90.9302 19.6803L90.9265 17.6803L74.402 17.7111L74.4057 19.7111ZM60.4702 18.5887L71.6704 26.6785L72.8414 25.0572L61.6413 16.9674L60.4702 18.5887ZM50.4411 26.6785L61.6413 18.5887L60.4702 16.9674L49.2701 25.0572L50.4411 26.6785ZM35.9884 26.8425L49.8538 26.8678L49.8574 24.8678L35.9921 24.8425L35.9884 26.8425ZM32.6831 39.2159L36.941 26.1524L35.0395 25.5326L30.7816 38.5961L32.6831 39.2159ZM21.0826 47.7665L32.3148 39.7189L31.1499 38.0931L19.9178 46.1407L21.0826 47.7665ZM25.7588 59.6866L21.4497 46.64L19.5506 47.2672L23.8597 60.3139L25.7588 59.6866ZM21.4497 73.3605L25.7588 60.3139L23.8597 59.6866L19.5506 72.7333L21.4497 73.3605ZM32.3148 80.2816L21.0826 72.234L19.9178 73.8598L31.1499 81.9074L32.3148 80.2816ZM36.941 93.8481L32.6831 80.7846L30.7816 81.4044L35.0395 94.4679L36.941 93.8481ZM49.8538 93.1327L35.9884 93.158L35.9921 95.158L49.8574 95.1327L49.8538 93.1327ZM61.6413 101.412L50.4411 93.322L49.2701 94.9434L60.4702 103.033L61.6413 101.412ZM71.6704 93.322L60.4702 101.412L61.6413 103.033L72.8414 94.9434L71.6704 93.322ZM86.1231 93.158L72.2577 93.1327L72.2541 95.1327L86.1194 95.158L86.1231 93.158ZM89.4284 80.7846L85.1705 93.8481L87.072 94.4679L91.3299 81.4044L89.4284 80.7846ZM101.029 72.234L89.7967 80.2816L90.9616 81.9074L102.194 73.8598L101.029 72.234ZM96.3527 60.3139L100.662 73.3605L102.561 72.7333L98.2518 59.6866L96.3527 60.3139ZM100.662 46.64L96.3527 59.6866L98.2518 60.3139L102.561 47.2672L100.662 46.64ZM89.7967 39.7189L101.029 47.7665L102.194 46.1407L90.9616 38.0931L89.7967 39.7189ZM85.1705 26.1524L89.4284 39.2159L91.3299 38.5961L87.072 25.5326L85.1705 26.1524ZM72.2577 26.8678L86.1231 26.8425L86.1194 24.8425L72.2541 24.8678L72.2577 26.8678Z" fill="#0070FF"/>
<path d="M44.5 60.25L55.75 71.5L78.25 49" stroke="#0070FF" stroke-width="5" stroke-linecap="round" stroke-linejoin="round"/>
</svg>
